<svg width="30" height="31" viewBox="0 0 30 31" fill="none" xmlns="http://www.w3.org/2000/svg">
<path d="M29.0652 28.7574L22.3376 21.8099C24.6384 19.4417 25.9309 16.2734 25.9432 12.9716C25.9432 9.53133 24.5766 6.23195 22.1439 3.7993C19.7113 1.36665 16.4119 0 12.9716 0C9.53134 0 6.23195 1.36665 3.7993 3.7993C1.36665 6.23195 0 9.53133 0 12.9716C0.0115095 14.6635 0.356165 16.3366 1.01429 17.8953C1.67241 19.4541 2.63111 20.8679 3.83564 22.0561C5.04017 23.2443 6.46695 24.1836 8.03451 24.8204C9.60207 25.4572 11.2797 25.7789 12.9716 25.7674C15.588 25.7672 18.1448 24.9863 20.3149 23.5248L27.1745 30.6042C27.3017 30.7306 27.4527 30.8306 27.6187 30.8985C27.7847 30.9664 27.9625 31.0009 28.1418 31C28.4806 30.9908 28.8062 30.8667 29.0652 30.6482C29.1915 30.5253 29.292 30.3783 29.3605 30.2159C29.4291 30.0535 29.4644 29.8791 29.4644 29.7028C29.4644 29.5266 29.4291 29.3521 29.3605 29.1897C29.292 29.0273 29.1915 28.8804 29.0652 28.7574ZM2.6383 12.9716C2.6383 10.2311 3.72698 7.60273 5.66486 5.66486C7.60273 3.72698 10.2311 2.6383 12.9716 2.6383C15.7122 2.6383 18.3405 3.72698 20.2784 5.66486C22.2163 7.60273 23.305 10.2311 23.305 12.9716C23.305 15.7122 22.2163 18.3405 20.2784 20.2784C18.3405 22.2163 15.7122 23.305 12.9716 23.305C10.2311 23.305 7.60273 22.2163 5.66486 20.2784C3.72698 18.3405 2.6383 15.7122 2.6383 12.9716Z" fill="#3E2AC0" fill-opacity="0.5"/>
</svg>
