<svg width="21" height="15" viewBox="0 0 21 15" fill="none" xmlns="http://www.w3.org/2000/svg">
<path d="M19.9347 1.09548C19.8786 1.03936 19.812 0.994842 19.7388 0.964467C19.6655 0.934092 19.5869 0.918457 19.5076 0.918457C19.4283 0.918457 19.3498 0.934092 19.2765 0.964467C19.2032 0.994842 19.1366 1.03936 19.0806 1.09548L7.49165 12.6844L1.56138 7.2521C1.44132 7.14405 1.28325 7.08811 1.12195 7.0966C0.960645 7.10509 0.809321 7.17731 0.701265 7.29737C0.59321 7.41743 0.537275 7.5755 0.545764 7.7368C0.554254 7.89811 0.626473 8.04943 0.746535 8.15749L7.10234 13.964C7.2169 14.0686 7.36734 14.1251 7.52244 14.1217C7.67754 14.1184 7.82538 14.0554 7.93529 13.9459L19.9347 1.94654C20.0471 1.83345 20.1102 1.68047 20.1102 1.52101C20.1102 1.36155 20.0471 1.20857 19.9347 1.09548Z" fill="white"/>
</svg>
