<svg width="24" height="29" viewBox="0 0 24 29" fill="none" xmlns="http://www.w3.org/2000/svg">
<path d="M1.98623 1.28134L3.55477 1.28134C4.1691 0.4744 5.12501 0.000438614 6.13918 -1.52588e-06L20.3432 -2.84133e-07C21.2049 0.000859613 22.031 0.343714 22.6404 0.952875C23.2496 1.56226 23.5924 2.38835 23.5933 3.2501L23.5933 25.1581C23.5924 26.0198 23.2498 26.8461 22.6404 27.4553C22.0312 28.0647 21.2049 28.4074 20.3432 28.4082L6.13918 28.4082C5.53238 28.4082 4.93758 28.2381 4.42234 27.9176C3.90709 27.5969 3.49181 27.1384 3.22377 26.5942C2.95249 26.508 2.72765 26.3156 2.60084 26.0609L0.532097 21.9995C0.182577 21.3133 0.000297657 20.5543 8.21937e-05 19.7846L8.36377e-05 3.26718C8.36838e-05 2.74054 0.209238 2.23518 0.581737 1.86285C0.954252 1.49034 1.45938 1.28098 1.98623 1.28098L1.98623 1.28134ZM6.48289 20.1627C6.49364 20.0376 6.5003 19.9113 6.5003 19.7849L6.5003 5.59739L0.601787 5.59738L0.601786 19.7849C0.601786 19.9113 0.607805 20.037 0.619198 20.1627L6.48289 20.1627ZM0.601986 3.26732L0.601985 4.99533L6.5005 4.99533L6.5005 3.26732C6.5005 2.90018 6.35476 2.5481 6.09509 2.28842C5.83542 2.02897 5.48334 1.88301 5.11619 1.88301L1.98644 1.88301C1.61929 1.88301 1.26722 2.02896 1.00754 2.28842C0.747867 2.54809 0.602131 2.90017 0.602131 3.26732L0.601986 3.26732ZM6.13896 27.8062L20.3429 27.8062C21.0452 27.8062 21.7189 27.5272 22.2156 27.0306C22.7122 26.5339 22.9912 25.8602 22.9912 25.158L22.9912 3.24999C22.9912 2.54771 22.7122 1.87405 22.2156 1.37731C21.7189 0.880765 21.0452 0.601738 20.3429 0.601737L6.13896 0.601736C5.4855 0.601951 4.85526 0.843774 4.36946 1.28057L5.11576 1.28057C5.64262 1.28057 6.14777 1.48994 6.52026 1.86244C6.89277 2.23496 7.10191 2.74009 7.10191 3.26677L7.10191 19.7847C7.10191 20.5553 6.91962 21.3152 6.56989 22.002L4.50054 26.061C4.37673 26.3043 4.16392 26.4907 3.90661 26.5816C4.39263 27.3442 5.2344 27.8062 6.1389 27.8064L6.13896 27.8062ZM3.13732 25.7899C3.20352 25.9243 3.33163 26.0169 3.47996 26.038C3.67858 26.0702 3.87526 25.9698 3.96554 25.7899L6.03363 21.7273C6.18968 21.4216 6.30834 21.0983 6.38701 20.7643L0.715216 20.7643C0.79389 21.0983 0.912544 21.4216 1.06861 21.7273L3.13732 25.7899Z" fill="white"/>
</svg>
