<svg width="13" height="21" viewBox="0 0 13 21" fill="none" xmlns="http://www.w3.org/2000/svg">
<path d="M6.50018 20.5264C6.34197 20.5264 6.13173 20.4307 6.02959 20.3336L0.2135 14.8599C-0.0506714 14.6043 -0.0812171 14.1903 0.186773 13.8925C0.426606 13.6262 0.89409 13.6195 1.15446 13.8658L5.8158 18.2596L5.8158 0.684164C5.8158 0.306161 6.12221 2.6761e-07 6.49996 2.84122e-07C6.87797 3.00646e-07 7.18413 0.306411 7.18413 0.684164L7.18413 18.2596L11.8455 13.8658C12.1058 13.6195 12.5619 13.6369 12.8129 13.8925C13.078 14.1621 13.0544 14.6084 12.7862 14.8599L6.97034 20.3336C6.8126 20.4944 6.66059 20.5238 6.49998 20.5264L6.50018 20.5264Z" fill="white"/>
</svg>
