<svg width="48" height="48" viewBox="0 0 48 48" fill="none" xmlns="http://www.w3.org/2000/svg">
<path d="M6.27068 40.16C6.53569 40.4505 6.80772 40.7344 7.08651 41.0116C9.22476 43.1377 11.7603 44.8646 14.5705 46.0698C17.4666 47.3119 20.6544 48 24 48C27.3456 48 30.5334 47.3119 33.4295 46.0698C36.2397 44.8646 38.7752 43.1377 40.9135 41.0116C41.1923 40.7344 41.4643 40.4505 41.7293 40.16H40.0667C38.1558 42.0599 35.9112 43.6246 33.4295 44.7569C30.5544 46.0686 27.3611 46.8 24 46.8C20.6389 46.8 17.4456 46.0686 14.5705 44.7569C12.0888 43.6246 9.8442 42.0599 7.9333 40.16H6.27068Z" fill="#429FFD" stroke="#429FFD" stroke-width="200"/>
</svg>
