<svg width="47" height="56" viewBox="0 0 47 56" fill="none" xmlns="http://www.w3.org/2000/svg">
<path d="M3.9037 2.51846L6.98664 2.51846C8.19411 0.932427 10.0729 0.000862091 12.0663 -2.99911e-06L39.984 -5.58459e-07C41.6778 0.00168956 43.3015 0.675566 44.4992 1.87287C45.6965 3.07061 46.3704 4.69428 46.3721 6.38803L46.3721 49.4479C46.3704 51.1417 45.6969 52.7658 44.4992 53.9631C43.3019 55.1608 41.6778 55.8343 39.984 55.836L12.0663 55.836C10.8736 55.836 9.70454 55.5018 8.69186 54.8718C7.67914 54.2415 6.8629 53.3403 6.33606 52.2705C5.80287 52.1011 5.36095 51.723 5.11171 51.2223L1.04562 43.2397C0.358643 41.8911 0.000374123 40.3992 -4.91759e-05 38.8863L-4.63378e-05 6.42161C-4.62473e-05 5.38651 0.411045 4.39321 1.14319 3.66142C1.87536 2.92924 2.86819 2.51775 3.9037 2.51775L3.9037 2.51846ZM12.7418 39.6297C12.763 39.3838 12.7761 39.1353 12.7761 38.8869L12.7761 11.0016L1.1826 11.0016L1.18259 38.8869C1.18259 39.1353 1.19442 39.3825 1.21682 39.6297L12.7418 39.6297ZM1.18299 6.42188L1.18299 9.81826L12.7764 9.81826L12.7764 6.42188C12.7764 5.70026 12.49 5.00826 11.9796 4.49786C11.4692 3.98791 10.7772 3.70104 10.0556 3.70104L3.90411 3.70104C3.18249 3.70104 2.49049 3.9879 1.98009 4.49786C1.46971 5.00823 1.18327 5.70025 1.18327 6.42188L1.18299 6.42188ZM12.0658 54.6528L39.9836 54.6528C41.3639 54.6528 42.688 54.1044 43.6643 53.1284C44.6403 52.1521 45.1887 50.8279 45.1887 49.4477L45.1887 6.38781C45.1887 5.0075 44.6403 3.68343 43.6643 2.70709C42.688 1.73113 41.3638 1.18271 39.9836 1.18271L12.0658 1.18271C10.7815 1.18313 9.54274 1.65843 8.58792 2.51694L10.0548 2.51694C11.0903 2.51694 12.0832 2.92845 12.8153 3.66061C13.5475 4.39278 13.9585 5.38562 13.9585 6.4208L13.9585 38.8866C13.9585 40.4013 13.6002 41.8947 12.9128 43.2446L8.84555 51.2226C8.6022 51.7008 8.18392 52.0671 7.6782 52.2459C8.63345 53.7448 10.2879 54.6528 12.0657 54.6532L12.0658 54.6528ZM6.16615 50.6898C6.29627 50.9538 6.54808 51.1359 6.83961 51.1773C7.23 51.2407 7.61657 51.0434 7.79401 50.6898L11.8588 42.7047C12.1655 42.1039 12.3988 41.4684 12.5534 40.8119L1.40554 40.8119C1.56017 41.4685 1.79338 42.1039 2.10012 42.7047L6.16615 50.6898Z" fill="#4085CF"/>
</svg>
