<svg width="24" height="24" viewBox="0 0 24 24" fill="none" xmlns="http://www.w3.org/2000/svg">
<path d="M11.6517 23.3167C13.4708 23.3157 15.2646 22.8894 16.8897 22.0718C18.5147 21.2541 19.9261 20.0678 21.011 18.6075C22.0959 17.1473 22.8243 15.4536 23.1381 13.6617C23.4519 11.8698 23.3423 10.0293 22.8181 8.28729C22.7713 8.13361 22.6653 8.00483 22.5235 7.92927C22.3818 7.85371 22.2158 7.83757 22.0621 7.88439C21.9084 7.93122 21.7796 8.03717 21.7041 8.17895C21.6285 8.32073 21.6124 8.48671 21.6592 8.64039C22.3475 10.9279 22.2306 13.3823 21.3282 15.594C20.4257 17.8058 18.7921 19.6413 16.7 20.7943C14.6078 21.9473 12.1836 22.3481 9.83168 21.9299C7.47976 21.5116 5.34234 20.2996 3.77597 18.496C2.2096 16.6924 1.30899 14.4063 1.22436 12.019C1.13974 9.63167 1.87622 7.2875 3.31095 5.37752C4.74568 3.46754 6.79191 2.10723 9.10832 1.52351C11.4247 0.939783 13.8712 1.16793 16.0398 2.1699C16.1849 2.23589 16.3502 2.24181 16.4996 2.18637C16.649 2.13093 16.7705 2.01863 16.8374 1.87398C16.9044 1.72933 16.9114 1.56408 16.8569 1.41427C16.8025 1.26447 16.691 1.14229 16.5468 1.07439C14.9642 0.343437 13.2378 -0.0233084 11.4948 0.00114746C9.75173 0.0256033 8.03634 0.440638 6.47489 1.2157C4.91344 1.99076 3.54567 3.10613 2.47227 4.47969C1.39888 5.85325 0.647167 7.45004 0.272481 9.15253C-0.102205 10.855 -0.0903295 12.6199 0.307232 14.3171C0.704794 16.0144 1.47792 17.601 2.56971 18.96C3.66149 20.319 5.04414 21.4158 6.61588 22.1698C8.18762 22.9238 9.90844 23.3157 11.6517 23.3167Z" fill="#0960BD"/>
</svg>
